<svg width="12" height="13" viewBox="0 0 12 13" fill="none" xmlns="http://www.w3.org/2000/svg">
<path d="M10.9922 5.30176H3.39844L6.70312 2.02051C6.79688 1.92676 6.87109 1.82129 6.92578 1.7041C6.98047 1.58691 7.00781 1.45801 7.00781 1.31738C7.00781 1.03613 6.91016 0.797852 6.71484 0.602539C6.51953 0.407227 6.28125 0.30957 6 0.30957C5.85938 0.30957 5.73047 0.336914 5.61328 0.391602C5.49609 0.446289 5.39062 0.512695 5.29688 0.59082L0.28125 5.60645C0.25 5.65332 0.214844 5.7041 0.175781 5.75879C0.136719 5.81348 0.109375 5.86426 0.09375 5.91113L0.0703125 5.93457C0.0546875 5.98145 0.0390625 6.04004 0.0234375 6.11035C0.0078125 6.18066 0 6.24707 0 6.30957C0 6.37207 0.0078125 6.43848 0.0234375 6.50879C0.0390625 6.5791 0.0625 6.6377 0.09375 6.68457H0.0703125C0.101562 6.74707 0.136719 6.80566 0.175781 6.86035C0.214844 6.91504 0.25 6.96582 0.28125 7.0127L5.29688 12.0283C5.39062 12.1064 5.49609 12.1729 5.61328 12.2275C5.73047 12.2822 5.85938 12.3096 6 12.3096C6.14062 12.3096 6.26953 12.2822 6.38672 12.2275C6.50391 12.1729 6.60938 12.1064 6.70312 12.0283C6.79688 11.9346 6.87109 11.8252 6.92578 11.7002C6.98047 11.5752 7.00781 11.4424 7.00781 11.3018C7.00781 11.1611 6.98047 11.0322 6.92578 10.915C6.87109 10.7979 6.79688 10.6924 6.70312 10.5986L3.39844 7.31738H10.9922C11.2734 7.31738 11.5117 7.21973 11.707 7.02441C11.9023 6.8291 12 6.59082 12 6.30957C12 6.02832 11.9023 5.79004 11.707 5.59473C11.5117 5.39941 11.2734 5.30176 10.9922 5.30176Z" fill="white"/>
</svg>
