<svg width="12" height="13" viewBox="0 0 12 13" fill="none" xmlns="http://www.w3.org/2000/svg">
<path d="M11.9297 5.93457C11.8984 5.87207 11.8633 5.81348 11.8242 5.75879C11.7852 5.7041 11.75 5.65332 11.7188 5.60645L6.70312 0.59082C6.60938 0.512695 6.50391 0.446289 6.38672 0.391602C6.26953 0.336914 6.14062 0.30957 6 0.30957C5.71875 0.30957 5.48047 0.407227 5.28516 0.602539C5.08984 0.797852 4.99219 1.03613 4.99219 1.31738C4.99219 1.45801 5.01953 1.58691 5.07422 1.7041C5.12891 1.82129 5.20312 1.92676 5.29688 2.02051L8.60156 5.30176H1.00781C0.726562 5.30176 0.488281 5.39941 0.292969 5.59473C0.0976563 5.79004 0 6.02832 0 6.30957C0 6.59082 0.0976563 6.8291 0.292969 7.02441C0.488281 7.21973 0.726562 7.31738 1.00781 7.31738H8.60156L5.29688 10.5986C5.20312 10.6924 5.12891 10.7979 5.07422 10.915C5.01953 11.0322 4.99219 11.1611 4.99219 11.3018C4.99219 11.4424 5.01953 11.5752 5.07422 11.7002C5.12891 11.8252 5.20312 11.9346 5.29688 12.0283C5.39062 12.1064 5.49609 12.1729 5.61328 12.2275C5.73047 12.2822 5.85938 12.3096 6 12.3096C6.14062 12.3096 6.26953 12.2822 6.38672 12.2275C6.50391 12.1729 6.60938 12.1064 6.70312 12.0283L11.7188 7.0127C11.75 6.96582 11.7852 6.91504 11.8242 6.86035C11.8633 6.80566 11.8906 6.75488 11.9062 6.70801L11.9297 6.68457C11.9453 6.6377 11.9609 6.5791 11.9766 6.50879C11.9922 6.43848 12 6.37207 12 6.30957C12 6.24707 11.9922 6.18066 11.9766 6.11035C11.9609 6.04004 11.9375 5.98145 11.9062 5.93457H11.9297Z" fill="white"/>
</svg>
