<svg width="23" height="23" viewBox="0 0 23 23" fill="none" xmlns="http://www.w3.org/2000/svg">
<path d="M21.1113 2.56152H17.8613V1.46973C17.8613 1.16504 17.7555 0.9069 17.5439 0.695312C17.3324 0.483725 17.0742 0.37793 16.7695 0.37793H5.95312C5.64844 0.37793 5.3903 0.483725 5.17871 0.695312C4.96712 0.9069 4.86133 1.16504 4.86133 1.46973V2.56152H1.61133C1.30664 2.56152 1.0485 2.66732 0.836914 2.87891C0.625326 3.09049 0.519531 3.34017 0.519531 3.62793V6.87793C0.519531 8.07975 0.942708 9.10384 1.78906 9.9502C2.63542 10.7965 3.65951 11.2197 4.86133 11.2197H6.53711C7.01107 11.7445 7.56543 12.1888 8.2002 12.5527C8.83496 12.9167 9.51628 13.1579 10.2441 13.2764H10.2695V15.5615H9.20312C8.30599 15.5615 7.54004 15.8789 6.90527 16.5137C6.27051 17.1484 5.95312 17.9144 5.95312 18.8115V20.9697C5.95312 21.2744 6.05892 21.5326 6.27051 21.7441C6.4821 21.9557 6.73177 22.0615 7.01953 22.0615H15.7031C15.9909 22.0615 16.2406 21.9557 16.4521 21.7441C16.6637 21.5326 16.7695 21.2744 16.7695 20.9697V18.8115C16.7695 17.9144 16.4521 17.1484 15.8174 16.5137C15.1826 15.8789 14.4167 15.5615 13.5195 15.5615H12.4531V13.2764C13.1979 13.1579 13.8877 12.9167 14.5225 12.5527C15.1572 12.1888 15.7116 11.7445 16.1855 11.2197H17.8613C19.0632 11.2197 20.0872 10.7965 20.9336 9.9502C21.7799 9.10384 22.2031 8.07975 22.2031 6.87793V3.62793C22.2031 3.34017 22.0973 3.09049 21.8857 2.87891C21.6742 2.66732 21.416 2.56152 21.1113 2.56152ZM4.86133 9.06152C4.26888 9.06152 3.76107 8.84993 3.33789 8.42676C2.91471 8.00358 2.70312 7.4873 2.70312 6.87793V4.71973H4.86133V6.87793C4.86133 7.26725 4.89518 7.64811 4.96289 8.02051C5.0306 8.3929 5.13216 8.74837 5.26758 9.08691L5.24219 9.06152H4.86133ZM13.5195 17.7197C13.8242 17.7197 14.0824 17.8255 14.2939 18.0371C14.5055 18.2487 14.6113 18.5068 14.6113 18.8115V19.8779H8.11133V18.8115C8.11133 18.5068 8.21712 18.2487 8.42871 18.0371C8.6403 17.8255 8.89844 17.7197 9.20312 17.7197H13.5195ZM15.7031 6.87793C15.7031 8.07975 15.2799 9.10384 14.4336 9.9502C13.5872 10.7965 12.5632 11.2197 11.3613 11.2197C10.1595 11.2197 9.13542 10.7965 8.28906 9.9502C7.44271 9.10384 7.01953 8.07975 7.01953 6.87793V2.56152H15.7031V6.87793ZM20.0195 6.87793C20.0195 7.4873 19.8079 8.00358 19.3848 8.42676C18.9616 8.84993 18.4538 9.06152 17.8613 9.06152H17.4805C17.599 8.73991 17.6921 8.3929 17.7598 8.02051C17.8275 7.64811 17.8613 7.26725 17.8613 6.87793V4.71973H20.0195V6.87793Z" fill="#5EB9F0"/>
</svg>
