<svg width="23" height="23" viewBox="0 0 23 23" fill="none" xmlns="http://www.w3.org/2000/svg">
<path d="M9.75781 10.915C9.85938 10.9997 9.97363 11.0716 10.1006 11.1309C10.2275 11.1901 10.3672 11.2197 10.5195 11.2197C10.6719 11.2197 10.8158 11.1901 10.9512 11.1309C11.0866 11.0716 11.2051 10.9997 11.3066 10.915L15.623 6.57324C15.7246 6.47168 15.805 6.35742 15.8643 6.23047C15.9235 6.10352 15.9531 5.96387 15.9531 5.81152C15.9531 5.50684 15.8473 5.2487 15.6357 5.03711C15.4242 4.82552 15.166 4.71973 14.8613 4.71973C14.709 4.71973 14.5693 4.74935 14.4424 4.80859C14.3154 4.86784 14.2012 4.93978 14.0996 5.02441L10.5195 8.60449L9.12305 7.20801C9.02148 7.10645 8.90723 7.02604 8.78027 6.9668C8.65332 6.90755 8.51367 6.87793 8.36133 6.87793C8.05664 6.87793 7.7985 6.98372 7.58691 7.19531C7.37533 7.4069 7.26953 7.66504 7.26953 7.96973C7.26953 8.12207 7.29915 8.26172 7.3584 8.38867C7.41764 8.51562 7.49805 8.62988 7.59961 8.73145L9.75781 10.915ZM21.3613 13.3779H20.2695V2.56152H21.3613C21.666 2.56152 21.9242 2.45573 22.1357 2.24414C22.3473 2.03255 22.4531 1.77441 22.4531 1.46973C22.4531 1.16504 22.3473 0.9069 22.1357 0.695312C21.9242 0.483725 21.666 0.37793 21.3613 0.37793H1.86133C1.55664 0.37793 1.2985 0.483725 1.08691 0.695312C0.875326 0.9069 0.769531 1.16504 0.769531 1.46973C0.769531 1.77441 0.875326 2.03255 1.08691 2.24414C1.2985 2.45573 1.55664 2.56152 1.86133 2.56152H2.95312V13.3779H1.86133C1.55664 13.3779 1.2985 13.4837 1.08691 13.6953C0.875326 13.9069 0.769531 14.165 0.769531 14.4697C0.769531 14.7744 0.875326 15.0326 1.08691 15.2441C1.2985 15.4557 1.55664 15.5615 1.86133 15.5615H10.5195V16.8057L5.59375 20.0557C5.44141 20.1403 5.31869 20.2673 5.22559 20.4365C5.13249 20.6058 5.08594 20.7835 5.08594 20.9697C5.08594 21.2744 5.19173 21.5326 5.40332 21.7441C5.61491 21.9557 5.87305 22.0615 6.17773 22.0615C6.17773 22.0615 6.1862 22.0615 6.20312 22.0615C6.32161 22.0615 6.42741 22.0446 6.52051 22.0107C6.61361 21.9769 6.70247 21.9261 6.78711 21.8584L10.5195 19.3955V20.9697C10.5195 21.2744 10.6253 21.5326 10.8369 21.7441C11.0485 21.9557 11.3066 22.0615 11.6113 22.0615C11.916 22.0615 12.1742 21.9557 12.3857 21.7441C12.5973 21.5326 12.7031 21.2744 12.7031 20.9697V19.3955L16.4355 21.8584C16.5202 21.9261 16.609 21.9769 16.7021 22.0107C16.7952 22.0446 16.901 22.0615 17.0195 22.0615C17.3242 22.0615 17.5824 21.9557 17.7939 21.7441C18.0055 21.5326 18.1113 21.2744 18.1113 20.9697C18.1113 20.7835 18.0648 20.61 17.9717 20.4492C17.8786 20.2884 17.7643 20.1657 17.6289 20.0811L12.7031 16.8311V15.5615H21.3613C21.666 15.5615 21.9242 15.4557 22.1357 15.2441C22.3473 15.0326 22.4531 14.7744 22.4531 14.4697C22.4531 14.165 22.3473 13.9069 22.1357 13.6953C21.9242 13.4837 21.666 13.3779 21.3613 13.3779ZM18.1113 13.3779H5.11133V2.56152H18.1113V13.3779Z" fill="#5EB9F0"/>
</svg>
