<svg width="17" height="18" viewBox="0 0 17 18" fill="none" xmlns="http://www.w3.org/2000/svg">
<path d="M8.33984 0.610352C7.19401 0.610352 6.11328 0.831705 5.09766 1.27441C4.08203 1.7041 3.19661 2.29655 2.44141 3.05176C1.6862 3.80697 1.09375 4.69238 0.664062 5.70801C0.221354 6.72363 0 7.80436 0 8.9502C0 10.096 0.221354 11.1768 0.664062 12.1924C1.09375 13.208 1.6862 14.0934 2.44141 14.8486C3.19661 15.6038 4.08203 16.1963 5.09766 16.626C6.11328 17.0687 7.19401 17.29 8.33984 17.29C9.48568 17.29 10.5664 17.0687 11.582 16.626C12.5977 16.1963 13.4831 15.6038 14.2383 14.8486C14.9935 14.0934 15.5859 13.208 16.0156 12.1924C16.4583 11.1768 16.6797 10.096 16.6797 8.9502C16.6797 7.80436 16.4583 6.72363 16.0156 5.70801C15.5859 4.69238 14.9935 3.80697 14.2383 3.05176C13.4831 2.29655 12.5977 1.7041 11.582 1.27441C10.5664 0.831705 9.48568 0.610352 8.33984 0.610352ZM8.33984 2.29004C9.23828 2.29004 10.0814 2.4528 10.8691 2.77832C11.6569 3.10384 12.3438 3.55306 12.9297 4.12598C12.3568 4.47754 11.7415 4.80306 11.084 5.10254C10.4264 5.40202 9.7526 5.66895 9.0625 5.90332L8.90625 5.94238C8.52865 5.30436 8.14128 4.70215 7.74414 4.13574C7.34701 3.56934 6.92708 3.02572 6.48438 2.50488L6.52344 2.54395C6.79688 2.46582 7.08659 2.40397 7.39258 2.3584C7.69857 2.31283 8.01432 2.29004 8.33984 2.29004ZM4.92188 3.24707C5.33854 3.71582 5.73893 4.21061 6.12305 4.73145C6.50716 5.25228 6.86849 5.79264 7.20703 6.35254L7.26562 6.4502C6.51042 6.64551 5.70964 6.79525 4.86328 6.89941C4.01693 7.00358 3.15104 7.06217 2.26562 7.0752H1.95312C2.20052 6.25488 2.57812 5.51921 3.08594 4.86816C3.59375 4.21712 4.19271 3.68327 4.88281 3.2666L4.92188 3.24707ZM3.33984 13.3838C2.81901 12.7979 2.41211 12.1305 2.11914 11.3818C1.82617 10.6331 1.67969 9.83561 1.67969 8.98926C1.67969 8.98926 1.67969 8.986 1.67969 8.97949C1.67969 8.97298 1.67969 8.96322 1.67969 8.9502C1.67969 8.91113 1.67969 8.87207 1.67969 8.83301C1.67969 8.79395 1.67969 8.75488 1.67969 8.71582H2.24609C3.28776 8.7028 4.30664 8.62142 5.30273 8.47168C6.29883 8.32194 7.27214 8.11035 8.22266 7.83691L8.06641 7.87598C8.20964 8.12337 8.3431 8.38053 8.4668 8.64746C8.5905 8.91439 8.71094 9.18457 8.82812 9.45801C8.15104 9.69238 7.51302 9.9821 6.91406 10.3271C6.3151 10.6722 5.75521 11.0531 5.23438 11.4697L5.25391 11.4502L5 11.665C4.70052 11.9255 4.41406 12.1956 4.14062 12.4756C3.86719 12.7555 3.60677 13.0452 3.35938 13.3447L3.33984 13.3838ZM8.33984 15.6104C8.33984 15.6104 8.33659 15.6104 8.33008 15.6104C8.32357 15.6104 8.32031 15.6104 8.32031 15.6104C7.63021 15.6104 6.9694 15.5094 6.33789 15.3076C5.70638 15.1058 5.1237 14.8226 4.58984 14.458L4.60938 14.4775C4.81771 14.2432 5.0293 14.0186 5.24414 13.8037C5.45898 13.5889 5.67708 13.3773 5.89844 13.1689L5.91797 13.1494L6.17188 12.9346C6.65365 12.5309 7.16797 12.1729 7.71484 11.8604C8.26172 11.5479 8.83464 11.2809 9.43359 11.0596L9.51172 11.04C9.73307 11.626 9.94141 12.2575 10.1367 12.9346C10.332 13.6117 10.5013 14.3148 10.6445 15.0439L10.6836 15.2002C10.3451 15.3304 9.97721 15.4313 9.58008 15.5029C9.18294 15.5745 8.78255 15.6104 8.37891 15.6104C8.36589 15.6104 8.35612 15.6104 8.34961 15.6104C8.3431 15.6104 8.33984 15.6104 8.33984 15.6104ZM12.207 14.3799C12.0378 13.6377 11.862 12.9476 11.6797 12.3096C11.4974 11.6715 11.2956 11.0531 11.0742 10.4541L11.1328 10.6494H11.4062C11.4193 10.6494 11.429 10.6494 11.4355 10.6494C11.4421 10.6494 11.4518 10.6494 11.4648 10.6494C11.4779 10.6494 11.4876 10.6494 11.4941 10.6494C11.5007 10.6494 11.5104 10.6494 11.5234 10.6494H12.0898C12.5456 10.6624 12.9948 10.708 13.4375 10.7861C13.8802 10.8643 14.3099 10.9749 14.7266 11.1182L14.668 11.0986C14.4336 11.7757 14.1048 12.391 13.6816 12.9443C13.2585 13.4977 12.7734 13.9697 12.2266 14.3604L12.207 14.3799ZM12.0898 8.9502C11.9987 8.9502 11.9108 8.9502 11.8262 8.9502C11.7415 8.9502 11.6602 8.9502 11.582 8.9502C11.556 8.9502 11.5267 8.94694 11.4941 8.94043C11.4616 8.93392 11.4323 8.93066 11.4062 8.93066C11.3802 8.93066 11.3542 8.93392 11.3281 8.94043C11.3021 8.94694 11.276 8.9502 11.25 8.9502C11.1198 8.96322 10.9961 8.97624 10.8789 8.98926C10.7617 9.00228 10.651 9.02181 10.5469 9.04785L10.5664 9.02832H10.4883C10.3711 8.75488 10.2474 8.48145 10.1172 8.20801C9.98698 7.93457 9.85677 7.65462 9.72656 7.36816C10.5469 7.08171 11.3151 6.76921 12.0312 6.43066C12.7474 6.09212 13.4375 5.72103 14.1016 5.31738L14.0039 5.37598C14.3164 5.87077 14.5605 6.41764 14.7363 7.0166C14.9121 7.61556 15 8.24056 15 8.8916C15 8.90462 15 8.91439 15 8.9209C15 8.92741 15 8.93717 15 8.9502C15 9.0153 15 9.08366 15 9.15527C15 9.22689 15 9.30176 15 9.37988C14.5833 9.23665 14.1374 9.12923 13.6621 9.05762C13.1868 8.986 12.6953 8.9502 12.1875 8.9502C12.1745 8.9502 12.1582 8.9502 12.1387 8.9502C12.1191 8.9502 12.1029 8.9502 12.0898 8.9502Z" fill="#E94D88"/>
</svg>
