<svg width="9" height="6" viewBox="0 0 9 6" fill="none" xmlns="http://www.w3.org/2000/svg">
<path d="M8.53516 0.261719C8.47005 0.196615 8.38542 0.141276 8.28125 0.0957031C8.17708 0.0501304 8.06641 0.0273438 7.94922 0.0273438C7.83203 0.0273438 7.72461 0.0501304 7.62695 0.0957031C7.5293 0.141276 7.44141 0.196615 7.36328 0.261719L4.375 3.21094L1.42578 0.261719C1.34766 0.196615 1.25977 0.141276 1.16211 0.0957031C1.06445 0.0501304 0.957031 0.0273438 0.839844 0.0273438C0.722656 0.0273438 0.615234 0.0501304 0.517578 0.0957031C0.419922 0.141276 0.332031 0.196615 0.253906 0.261719C0.175781 0.339844 0.113932 0.43099 0.0683594 0.535156C0.0227865 0.639323 0 0.75 0 0.867188C0 0.971354 0.0227865 1.07552 0.0683594 1.17969C0.113932 1.28385 0.175781 1.375 0.253906 1.45312L3.78906 4.98828C3.86719 5.06641 3.95508 5.125 4.05273 5.16406C4.15039 5.20312 4.25781 5.22266 4.375 5.22266C4.49219 5.22266 4.59961 5.20312 4.69727 5.16406C4.79492 5.125 4.88281 5.06641 4.96094 4.98828L8.53516 1.45312C8.61328 1.375 8.67513 1.28385 8.7207 1.17969C8.76628 1.07552 8.78906 0.971354 8.78906 0.867188C8.78906 0.75 8.76628 0.639323 8.7207 0.535156C8.67513 0.43099 8.61328 0.339844 8.53516 0.261719Z" fill="#5EB9F0"/>
</svg>
