<svg width="9" height="18" viewBox="0 0 9 18" fill="none" xmlns="http://www.w3.org/2000/svg">
<path d="M7.08984 3.38379H8.65234V0.727539C8.3138 0.688477 7.95573 0.65918 7.57812 0.639648C7.20052 0.620117 6.8099 0.610352 6.40625 0.610352C6.40625 0.610352 6.40299 0.610352 6.39648 0.610352C6.38997 0.610352 6.38021 0.610352 6.36719 0.610352C5.23438 0.610352 4.31641 0.948893 3.61328 1.62598C2.91016 2.30306 2.55859 3.27311 2.55859 4.53613V6.72363H0V9.69238H2.55859V17.29H5.625V9.69238H8.18359L8.55469 6.72363H5.625V4.8291C5.625 4.38639 5.71615 4.03483 5.89844 3.77441C6.08073 3.514 6.47786 3.38379 7.08984 3.38379Z" fill="#4470CF"/>
</svg>
