<svg width="23" height="19" viewBox="0 0 23 19" fill="none" xmlns="http://www.w3.org/2000/svg">
<path d="M12.877 9.44824C13.4525 8.95736 13.9053 8.36491 14.2354 7.6709C14.5654 6.97689 14.7305 6.2321 14.7305 5.43652C14.7305 4.6748 14.5866 3.97233 14.2988 3.3291C14.0111 2.66895 13.626 2.09342 13.1436 1.60254C12.6611 1.11165 12.0898 0.72233 11.4297 0.43457C10.7695 0.146811 10.0671 0.00292969 9.32227 0.00292969C8.56055 0.00292969 7.85807 0.146811 7.21484 0.43457C6.55469 0.72233 5.97917 1.11165 5.48828 1.60254C4.9974 2.09342 4.60807 2.66895 4.32031 3.3291C4.03255 3.97233 3.88867 4.6748 3.88867 5.43652C3.88867 6.2321 4.05371 6.97689 4.38379 7.6709C4.71387 8.36491 5.16667 8.95736 5.74219 9.44824C4.98047 9.80371 4.28646 10.2523 3.66016 10.7939C3.03385 11.3356 2.50065 11.945 2.06055 12.6221C1.62044 13.2992 1.27344 14.0355 1.01953 14.8311C0.765625 15.6266 0.638672 16.4645 0.638672 17.3447C0.638672 17.6494 0.744466 17.9076 0.956055 18.1191C1.16764 18.3307 1.42578 18.4365 1.73047 18.4365C2.03516 18.4365 2.29329 18.3307 2.50488 18.1191C2.71647 17.9076 2.82227 17.6494 2.82227 17.3447C2.82227 16.4476 2.99154 15.6012 3.33008 14.8057C3.66862 14.027 4.12988 13.3415 4.71387 12.749C5.29785 12.1566 5.98763 11.6911 6.7832 11.3525C7.57878 11.014 8.42513 10.8447 9.32227 10.8447C10.2194 10.8447 11.0573 11.014 11.8359 11.3525C12.6315 11.6911 13.3213 12.1566 13.9053 12.749C14.4893 13.3415 14.959 14.027 15.3145 14.8057C15.653 15.6012 15.8223 16.4476 15.8223 17.3447C15.8223 17.6494 15.9281 17.9076 16.1396 18.1191C16.3512 18.3307 16.6009 18.4365 16.8887 18.4365C17.1934 18.4365 17.4515 18.3307 17.6631 18.1191C17.8747 17.9076 17.9805 17.6494 17.9805 17.3447C17.9805 16.4645 17.8535 15.6266 17.5996 14.8311C17.3626 14.0355 17.0199 13.2992 16.5713 12.6221C16.1227 11.945 15.5938 11.3356 14.9844 10.7939C14.3581 10.2692 13.681 9.8291 12.9531 9.47363L12.877 9.44824ZM9.32227 8.68652C8.42513 8.68652 7.65918 8.36914 7.02441 7.73438C6.38965 7.09961 6.07227 6.33366 6.07227 5.43652C6.07227 4.53939 6.38965 3.77344 7.02441 3.13867C7.65918 2.50391 8.42513 2.18652 9.32227 2.18652C10.2194 2.18652 10.9854 2.50391 11.6201 3.13867C12.2549 3.77344 12.5723 4.53939 12.5723 5.43652C12.5723 6.33366 12.2549 7.09961 11.6201 7.73438C10.9854 8.36914 10.2194 8.68652 9.32227 8.68652ZM21.9922 6.12207C21.8906 6.02051 21.7764 5.9401 21.6494 5.88086C21.5225 5.82161 21.3828 5.79199 21.2305 5.79199C21.0781 5.79199 20.9385 5.82161 20.8115 5.88086C20.6846 5.9401 20.5703 6.02051 20.4688 6.12207L18.2852 8.28027L17.625 7.59473C17.5234 7.49316 17.4092 7.41276 17.2822 7.35352C17.1553 7.29427 17.0156 7.26465 16.8633 7.26465C16.7109 7.26465 16.5671 7.29427 16.4316 7.35352C16.2962 7.41276 16.1777 7.49316 16.0762 7.59473C15.9915 7.69629 15.9196 7.81055 15.8604 7.9375C15.8011 8.06445 15.7715 8.2041 15.7715 8.35645C15.7715 8.50879 15.8011 8.64844 15.8604 8.77539C15.9196 8.90234 15.9915 9.0166 16.0762 9.11816L17.5488 10.5654C17.6335 10.667 17.7435 10.7474 17.8789 10.8066C18.0143 10.8659 18.1582 10.8955 18.3105 10.8955C18.446 10.8955 18.5814 10.8659 18.7168 10.8066C18.8522 10.7474 18.9707 10.667 19.0723 10.5654L21.9668 7.6709C22.0684 7.58626 22.153 7.472 22.2207 7.32812C22.2884 7.18425 22.3223 7.03613 22.3223 6.88379C22.3223 6.73145 22.2926 6.58757 22.2334 6.45215C22.1742 6.31673 22.0938 6.20671 21.9922 6.12207Z" fill="#5EB9F0"/>
</svg>
