<svg width="10" height="10" viewBox="0 0 10 10" fill="none" xmlns="http://www.w3.org/2000/svg">
<path d="M8.97656 5.12891C8.95312 5.08203 8.92676 5.03809 8.89746 4.99707C8.86816 4.95605 8.8418 4.91797 8.81836 4.88281L5.05664 1.12109C4.98633 1.0625 4.90723 1.0127 4.81934 0.97168C4.73145 0.930664 4.63477 0.910156 4.5293 0.910156C4.31836 0.910156 4.13965 0.983398 3.99316 1.12988C3.84668 1.27637 3.77344 1.45508 3.77344 1.66602C3.77344 1.77148 3.79395 1.86816 3.83496 1.95605C3.87598 2.04395 3.93164 2.12305 4.00195 2.19336L6.48047 4.6543H0.785156C0.574219 4.6543 0.395508 4.72754 0.249023 4.87402C0.102539 5.02051 0.0292969 5.19922 0.0292969 5.41016C0.0292969 5.62109 0.102539 5.7998 0.249023 5.94629C0.395508 6.09277 0.574219 6.16602 0.785156 6.16602H6.48047L4.00195 8.62695C3.93164 8.69727 3.87598 8.77637 3.83496 8.86426C3.79395 8.95215 3.77344 9.04883 3.77344 9.1543C3.77344 9.25977 3.79395 9.35938 3.83496 9.45312C3.87598 9.54688 3.93164 9.62891 4.00195 9.69922C4.07227 9.75781 4.15137 9.80762 4.23926 9.84863C4.32715 9.88965 4.42383 9.91016 4.5293 9.91016C4.63477 9.91016 4.73145 9.88965 4.81934 9.84863C4.90723 9.80762 4.98633 9.75781 5.05664 9.69922L8.81836 5.9375C8.8418 5.90234 8.86816 5.86426 8.89746 5.82324C8.92676 5.78223 8.94727 5.74414 8.95898 5.70898L8.97656 5.69141C8.98828 5.65625 9 5.6123 9.01172 5.55957C9.02344 5.50684 9.0293 5.45703 9.0293 5.41016C9.0293 5.36328 9.02344 5.31348 9.01172 5.26074C9 5.20801 8.98242 5.16406 8.95898 5.12891H8.97656Z" fill="#5EB9F0"/>
</svg>
