<svg width="17" height="14" viewBox="0 0 17 14" fill="none" xmlns="http://www.w3.org/2000/svg">
<path d="M16.6992 1.77441C16.4128 1.90462 16.1035 2.0153 15.7715 2.10645C15.4395 2.19759 15.1042 2.26921 14.7656 2.32129H14.7266C15.0781 2.09993 15.3841 1.82975 15.6445 1.51074C15.9049 1.19173 16.1003 0.836914 16.2305 0.446289V0.426758C15.918 0.60905 15.5827 0.77181 15.2246 0.915039C14.8665 1.05827 14.4922 1.16895 14.1016 1.24707L14.0625 1.2666C13.75 0.92806 13.3757 0.657878 12.9395 0.456055C12.5033 0.254231 12.0378 0.15332 11.543 0.15332C10.6055 0.15332 9.80143 0.488606 9.13086 1.15918C8.46029 1.82975 8.125 2.63379 8.125 3.57129C8.125 3.71452 8.13477 3.85449 8.1543 3.99121C8.17383 4.12793 8.19661 4.26139 8.22266 4.3916V4.37207C7.51953 4.33301 6.83594 4.22233 6.17188 4.04004C5.50781 3.85775 4.8763 3.61361 4.27734 3.30762C3.67839 3.00163 3.11849 2.6403 2.59766 2.22363C2.08984 1.79395 1.62109 1.3252 1.19141 0.817383V0.797852C1.04818 1.04525 0.934245 1.31543 0.849609 1.6084C0.764974 1.90137 0.722656 2.2041 0.722656 2.5166C0.722656 2.52962 0.722656 2.53613 0.722656 2.53613C0.722656 3.12207 0.859375 3.66243 1.13281 4.15723C1.40625 4.65202 1.77083 5.05566 2.22656 5.36816H2.24609C1.95964 5.35514 1.68294 5.31283 1.41602 5.24121C1.14909 5.1696 0.904948 5.06868 0.683594 4.93848V4.97754C0.696615 5.79785 0.963542 6.52051 1.48438 7.14551C2.00521 7.77051 2.64974 8.16113 3.41797 8.31738H3.4375C3.30729 8.35645 3.16406 8.389 3.00781 8.41504C2.85156 8.44108 2.6888 8.4541 2.51953 8.4541C2.41536 8.4541 2.30794 8.45085 2.19727 8.44434C2.08659 8.43783 1.97266 8.42155 1.85547 8.39551H1.875C2.10938 9.08561 2.51628 9.64876 3.0957 10.085C3.67513 10.5212 4.33594 10.7458 5.07812 10.7588C4.50521 11.2145 3.85742 11.5726 3.13477 11.833C2.41211 12.0934 1.65365 12.2301 0.859375 12.2432C0.859375 12.2432 0.85612 12.2432 0.849609 12.2432C0.843099 12.2432 0.839844 12.2432 0.839844 12.2432C0.696615 12.2432 0.553385 12.2367 0.410156 12.2236C0.266927 12.2106 0.130208 12.1976 0 12.1846H0.0195312C0.761719 12.6663 1.57552 13.0439 2.46094 13.3174C3.34635 13.5908 4.27734 13.7275 5.25391 13.7275C5.25391 13.7275 5.25716 13.7275 5.26367 13.7275C5.27018 13.7275 5.27344 13.7275 5.27344 13.7275C5.28646 13.7275 5.29948 13.7275 5.3125 13.7275C5.32552 13.7275 5.34505 13.7275 5.37109 13.7275C6.69922 13.7275 7.94922 13.4736 9.12109 12.9658C10.293 12.458 11.3184 11.7679 12.1973 10.8955C13.0762 10.0231 13.763 9.00098 14.2578 7.8291C14.7656 6.65723 15.0195 5.40072 15.0195 4.05957C15.0195 4.04655 15.0195 4.03353 15.0195 4.02051C15.0195 4.00749 15.0195 3.99447 15.0195 3.98145V4.00098C15.0195 3.92285 15.0195 3.84798 15.0195 3.77637C15.0195 3.70475 15.0195 3.62988 15.0195 3.55176C15.3451 3.30436 15.6478 3.03418 15.9277 2.74121C16.2077 2.44824 16.4583 2.139 16.6797 1.81348L16.6992 1.77441Z" fill="#5DAED5"/>
</svg>
